<?xml version="1.0"?>
<svg xmlns:xlink="http://www.w3.org/1999/xlink" width="2056.15395" height="1836.830862">
<image x="0" y="0" width="2056.15395" height="1836.830862" xlink:href="groundempty-02.png"/>
<g style="stroke-linecap:round">
<line x1="903.107085" y1="84.021965" x2="1107.328767" y2="84.021965" stroke="black" stroke-width="3.152769"/>
<line x1="1107.328767" y1="84.021965" x2="1107.328767" y2="47.494509" stroke="black" stroke-width="3.152769"/>
<line x1="1107.328767" y1="47.494509" x2="903.107085" y2="47.494509" stroke="black" stroke-width="3.152769"/>
<line x1="903.107085" y1="47.494509" x2="903.107085" y2="84.021965" stroke="black" stroke-width="3.152769"/>
<line x1="912.654033" y1="84.021965" x2="912.654033" y2="96.474509" stroke="black" stroke-width="3.152769"/>
<line x1="912.654033" y1="96.474509" x2="1097.366734" y2="96.474509" stroke="black" stroke-width="3.152769"/>
<line x1="1097.366734" y1="84.021965" x2="1097.366734" y2="96.474509" stroke="black" stroke-width="3.152769"/>
<line x1="1518.82573" y1="1653.051429" x2="1314.604048" y2="1653.051429" stroke="black" stroke-width="3.152769"/>
<line x1="1314.604048" y1="1653.051429" x2="1314.604048" y2="1689.578885" stroke="black" stroke-width="3.152769"/>
<line x1="1314.604048" y1="1689.578885" x2="1518.82573" y2="1689.578885" stroke="black" stroke-width="3.152769"/>
<line x1="1518.82573" y1="1689.578885" x2="1518.82573" y2="1653.051429" stroke="black" stroke-width="3.152769"/>
<line x1="1509.278781" y1="1653.051429" x2="1509.278781" y2="1640.598885" stroke="black" stroke-width="3.152769"/>
<line x1="1509.278781" y1="1640.598885" x2="1324.56608" y2="1640.598885" stroke="black" stroke-width="3.152769"/>
<line x1="1324.56608" y1="1653.051429" x2="1324.56608" y2="1640.598885" stroke="black" stroke-width="3.152769"/>
<line x1="756.247358" y1="1494.233918" x2="768.38411" y2="1494.233918" stroke="black" stroke-width="3.152769"/>
<line x1="768.38411" y1="1494.233918" x2="768.38411" y2="1688.421944" stroke="black" stroke-width="3.152769"/>
<line x1="756.247358" y1="1688.421944" x2="768.38411" y2="1688.421944" stroke="black" stroke-width="3.152769"/>
<line x1="756.247358" y1="1494.233918" x2="756.247358" y2="1688.421944" stroke="black" stroke-width="3.152769"/>
<line x1="1131.677541" y1="1494.233918" x2="1144.623409" y2="1494.233918" stroke="black" stroke-width="3.152769"/>
<line x1="1144.623409" y1="1494.233918" x2="1144.623409" y2="1688.421944" stroke="black" stroke-width="3.152769"/>
<line x1="1131.677541" y1="1688.421944" x2="1144.623409" y2="1688.421944" stroke="black" stroke-width="3.152769"/>
<line x1="1131.677541" y1="1494.233918" x2="1131.677541" y2="1688.421944" stroke="black" stroke-width="3.152769"/>
<path d="m 756.247358,1494.233918 a 194.18802550000004,194.18802550000004 0 0 1 194.18802500000004,194.18802600000004" fill="none" stroke="black" stroke-width="3.152769"/>
<path d="m 950.435383,1688.421944 a 194.18802600000004,194.18802600000004 0 0 1 194.18802600000004,-194.18802600000004" fill="none" stroke="black" stroke-width="3.152769"/>
<line x1="1963.581443" y1="319.022143" x2="1963.581443" y2="523.243825" stroke="black" stroke-width="3.152769"/>
<line x1="1963.581443" y1="523.243825" x2="2000.108899" y2="523.243825" stroke="black" stroke-width="3.152769"/>
<line x1="2000.108899" y1="523.243825" x2="2000.108899" y2="319.022143" stroke="black" stroke-width="3.152769"/>
<line x1="2000.108899" y1="319.022143" x2="1963.581443" y2="319.022143" stroke="black" stroke-width="3.152769"/>
<line x1="1963.581443" y1="328.569091" x2="1951.128899" y2="328.569091" stroke="black" stroke-width="3.152769"/>
<line x1="1951.128899" y1="328.569091" x2="1951.128899" y2="513.281792" stroke="black" stroke-width="3.152769"/>
<line x1="1963.581443" y1="513.281792" x2="1951.128899" y2="513.281792" stroke="black" stroke-width="3.152769"/>
<line x1="1259.768079" y1="1163.185118" x2="1259.768079" y2="1147.448939" stroke="black" stroke-width="3.152769"/>
<line x1="1259.768079" y1="1147.448939" x2="1229.063337" y2="1147.448939" stroke="black" stroke-width="3.152769"/>
<line x1="1229.063337" y1="1147.448939" x2="1229.063337" y2="1163.185118" stroke="black" stroke-width="3.152769"/>
<line x1="1229.063337" y1="1163.185118" x2="1259.768079" y2="1163.185118" stroke="black" stroke-width="3.152769"/>
<line x1="1229.063337" y1="993.54142" x2="1075.92344" y2="993.54142" stroke="black" stroke-width="3.152769"/>
<line x1="1260.535697" y1="993.157611" x2="1260.535697" y2="977.421432" stroke="black" stroke-width="3.152769"/>
<line x1="1260.535697" y1="977.421432" x2="1229.830956" y2="977.421432" stroke="black" stroke-width="3.152769"/>
<line x1="1229.830956" y1="977.421432" x2="1229.830956" y2="993.157611" stroke="black" stroke-width="3.152769"/>
<line x1="1229.830956" y1="993.157611" x2="1260.535697" y2="993.157611" stroke="black" stroke-width="3.152769"/>
<path d="m 1230.214765,1147.448939 a 153.90751750000004,153.90751750000004 0 0 1 -153.907516,-153.9075190000001" fill="none" stroke="black" stroke-width="3.152769"/>
<line x1="669.120947" y1="1207.640357" x2="653.329295" y2="1207.640357" stroke="black" stroke-width="3.152769"/>
<line x1="653.329295" y1="1207.640357" x2="653.329295" y2="1238.453338" stroke="black" stroke-width="3.152769"/>
<line x1="653.329295" y1="1238.453338" x2="669.120947" y2="1238.453338" stroke="black" stroke-width="3.152769"/>
<line x1="669.120947" y1="1238.453338" x2="669.120947" y2="1207.640357" stroke="black" stroke-width="3.152769"/>
<line x1="498.879229" y1="1238.453338" x2="498.879229" y2="1392.133078" stroke="black" stroke-width="3.152769"/>
<line x1="498.494067" y1="1206.870034" x2="482.702415" y2="1206.870034" stroke="black" stroke-width="3.152769"/>
<line x1="482.702415" y1="1206.870034" x2="482.702415" y2="1237.683015" stroke="black" stroke-width="3.152769"/>
<line x1="482.702415" y1="1237.683015" x2="498.494067" y2="1237.683015" stroke="black" stroke-width="3.152769"/>
<line x1="498.494067" y1="1237.683015" x2="498.494067" y2="1206.870034" stroke="black" stroke-width="3.152769"/>
<path d="m 653.329295,1237.297853 a 154.4500645,154.4500645 0 0 1 -154.450066,154.450063" fill="none" stroke="black" stroke-width="3.152769"/>
<line x1="1907.132423" y1="1645.512993" x2="1907.132423" y2="1461.768984" stroke="black" stroke-width="3.152769"/>
<line x1="1907.132423" y1="1461.768984" x2="1956.236425" y2="1461.768984" stroke="black" stroke-width="3.152769"/>
<line x1="1956.236425" y1="1645.512993" x2="1956.236425" y2="1461.768984" stroke="black" stroke-width="3.152769"/>
<line x1="1907.132423" y1="1645.512993" x2="1956.236425" y2="1645.512993" stroke="black" stroke-width="3.152769"/>
<line x1="1879.412421" y1="1603.932991" x2="1907.132423" y2="1603.932991" stroke="black" stroke-width="3.152769"/>
<line x1="1907.132423" y1="1504.932986" x2="1877.828421" y2="1504.932986" stroke="black" stroke-width="3.152769"/>
<circle cx="1834.268419" cy="1555.224988" r="66.52800336000001" fill="none" stroke="black" stroke-width="3.152769"/>
<circle cx="1834.268419" cy="1555.224988" r="57.024002880000005" fill="none" stroke="black" stroke-width="3.152769"/>
<line x1="1284.845408" y1="1398.845698" x2="1260.293406" y2="1417.457699" stroke="black" stroke-width="3.152769"/>
<line x1="1260.293406" y1="1417.457699" x2="1260.293406" y2="1564.769707" stroke="black" stroke-width="3.152769"/>
<line x1="1260.293406" y1="1564.769707" x2="1288.409408" y2="1583.777708" stroke="black" stroke-width="3.152769"/>
<line x1="1287.617408" y1="1420.625699" x2="1287.617408" y2="1563.581707" stroke="black" stroke-width="3.152769"/>
<circle cx="1309.397409" cy="1489.925703" r="13.068000660000003" fill="none" stroke="black" stroke-width="3.152769"/>
<path d="m 1286.950059,1422.178952 a 74.84400348070997,74.84400348070997 0 1 1 0.4020499999999174,139.60900900000001" fill="none" stroke="black" stroke-width="3.152769"/>
<path d="m 1284.188044,1398.892 a 95.43600379741252,95.43600379741252 0 1 1 3.0749590000000353,184.46700499999997" fill="none" stroke="black" stroke-width="3.152769"/>
<line x1="1511.86524" y1="1133.505251" x2="1903.11326" y2="1133.505251" stroke="black" stroke-width="3.152769"/>
<line x1="1903.11326" y1="1133.505251" x2="1903.11326" y2="959.265243" stroke="black" stroke-width="3.152769"/>
<line x1="1903.11326" y1="959.265243" x2="1511.86524" y2="959.265243" stroke="black" stroke-width="3.152769"/>
<line x1="1511.86524" y1="959.265243" x2="1511.86524" y2="1133.505251" stroke="black" stroke-width="3.152769"/>
<line x1="1827.873256" y1="986.193244" x2="1543.545242" y2="986.193244" stroke="black" stroke-width="3.152769"/>
<line x1="1543.545242" y1="986.193244" x2="1543.545242" y2="1104.20125" stroke="black" stroke-width="3.152769"/>
<line x1="1543.545242" y1="1104.20125" x2="1833.417257" y2="1104.20125" stroke="black" stroke-width="3.152769"/>
<path d="m 1827.062684,985.937821 a 63.36000284802704,63.36000284802704 0 0 1 4.293813,119.37433699999997" fill="none" stroke="black" stroke-width="3.152769"/>
<line x1="1499.258031" y1="932.484041" x2="1499.258031" y2="539.652022" stroke="black" stroke-width="3.152769"/>
<line x1="1499.258031" y1="539.652022" x2="1314.722022" y2="539.652022" stroke="black" stroke-width="3.152769"/>
<line x1="1314.722022" y1="539.652022" x2="1314.722022" y2="932.484041" stroke="black" stroke-width="3.152769"/>
<line x1="1314.722022" y1="932.484041" x2="1499.258031" y2="932.484041" stroke="black" stroke-width="3.152769"/>
<line x1="1314.722022" y1="773.292033" x2="1233.938018" y2="773.292033" stroke="black" stroke-width="3.152769"/>
<line x1="1233.938018" y1="773.292033" x2="1233.938018" y2="851.700037" stroke="black" stroke-width="3.152769"/>
<line x1="1233.938018" y1="851.700037" x2="1314.722022" y2="851.700037" stroke="black" stroke-width="3.152769"/>
<line x1="1251.362019" y1="850.908037" x2="1251.362019" y2="773.292033" stroke="black" stroke-width="3.152769"/>
<line x1="1580.834035" y1="851.700037" x2="1580.834035" y2="773.292033" stroke="black" stroke-width="3.152769"/>
<line x1="1580.834035" y1="773.292033" x2="1499.258031" y2="773.292033" stroke="black" stroke-width="3.152769"/>
<line x1="1499.258031" y1="851.700037" x2="1580.834035" y2="851.700037" stroke="black" stroke-width="3.152769"/>
<line x1="1563.410035" y1="850.908037" x2="1563.410035" y2="773.292033" stroke="black" stroke-width="3.152769"/>
<line x1="1314.722022" y1="622.020026" x2="1233.938018" y2="622.020026" stroke="black" stroke-width="3.152769"/>
<line x1="1233.938018" y1="622.020026" x2="1233.938018" y2="700.42803" stroke="black" stroke-width="3.152769"/>
<line x1="1233.938018" y1="700.42803" x2="1314.722022" y2="700.42803" stroke="black" stroke-width="3.152769"/>
<line x1="1251.362019" y1="700.42803" x2="1251.362019" y2="622.020026" stroke="black" stroke-width="3.152769"/>
<line x1="1580.834035" y1="700.42803" x2="1580.834035" y2="622.020026" stroke="black" stroke-width="3.152769"/>
<line x1="1580.834035" y1="622.020026" x2="1499.258031" y2="622.020026" stroke="black" stroke-width="3.152769"/>
<line x1="1499.258031" y1="700.42803" x2="1580.834035" y2="700.42803" stroke="black" stroke-width="3.152769"/>
<line x1="1563.410035" y1="700.42803" x2="1563.410035" y2="622.020026" stroke="black" stroke-width="3.152769"/>
<line x1="1231.897555" y1="90.941932" x2="1408.223201" y2="90.941932" stroke="black" stroke-width="3.152769"/>
<line x1="1408.223201" y1="90.941932" x2="1408.223201" y2="267.628901" stroke="black" stroke-width="3.152769"/>
<line x1="1408.223201" y1="267.628901" x2="1231.897555" y2="267.628901" stroke="black" stroke-width="3.152769"/>
<line x1="1231.897555" y1="267.628901" x2="1231.897555" y2="90.941932" stroke="black" stroke-width="3.152769"/>
<line x1="1231.536232" y1="90.580609" x2="1408.223201" y2="267.628901" stroke="black" stroke-width="3.152769"/>
<line x1="1231.897555" y1="267.267578" x2="1407.861879" y2="90.941932" stroke="black" stroke-width="3.152769"/>
<line x1="430.169049" y1="300.108987" x2="430.169049" y2="90.743776" stroke="black" stroke-width="3.152769"/>
<line x1="430.169049" y1="90.743776" x2="98.954633" y2="90.743776" stroke="black" stroke-width="3.152769"/>
<line x1="98.954633" y1="90.743776" x2="98.954633" y2="300.108987" stroke="black" stroke-width="3.152769"/>
<line x1="98.954633" y1="300.108987" x2="430.169049" y2="300.108987" stroke="black" stroke-width="3.152769"/>
<line x1="158.196236" y1="300.782187" x2="158.196236" y2="90.070573" stroke="black" stroke-width="3.152769"/>
<line x1="158.196236" y1="90.070573" x2="208.013038" y2="299.435787" stroke="black" stroke-width="3.152769"/>
<line x1="208.013038" y1="299.435787" x2="254.463843" y2="267.795385" stroke="black" stroke-width="3.152769"/>
<line x1="254.463843" y1="267.795385" x2="157.523039" y2="90.070573" stroke="black" stroke-width="3.152769"/>
<line x1="288.921529" y1="438.277098" x2="98.84152" y2="438.277098" stroke="black" stroke-width="3.152769"/>
<line x1="98.84152" y1="438.277098" x2="98.84152" y2="902.072321" stroke="black" stroke-width="3.152769"/>
<line x1="98.84152" y1="902.072321" x2="288.921529" y2="902.072321" stroke="black" stroke-width="3.152769"/>
<line x1="288.921529" y1="902.072321" x2="288.921529" y2="878.31232" stroke="black" stroke-width="3.152769"/>
<line x1="288.921529" y1="878.31232" x2="121.651121" y2="878.31232" stroke="black" stroke-width="3.152769"/>
<line x1="121.651121" y1="878.31232" x2="121.651121" y2="462.987499" stroke="black" stroke-width="3.152769"/>
<line x1="121.651121" y1="462.987499" x2="288.921529" y2="462.987499" stroke="black" stroke-width="3.152769"/>
<line x1="288.921529" y1="462.987499" x2="288.921529" y2="438.277098" stroke="black" stroke-width="3.152769"/>
<line x1="283.219129" y1="462.987499" x2="283.219129" y2="878.31232" stroke="black" stroke-width="3.152769"/>
<line x1="284.169529" y1="670.17471" x2="122.601521" y2="670.17471" stroke="black" stroke-width="3.152769"/>
<line x1="409.357186" y1="616.91458" x2="637.196836" y2="608.958245" stroke="black" stroke-width="3.152769"/>
<line x1="637.196836" y1="608.958245" x2="645.169474" y2="837.264774" stroke="black" stroke-width="3.152769"/>
<line x1="645.169474" y1="837.264774" x2="417.32983" y2="845.221112" stroke="black" stroke-width="3.152769"/>
<line x1="417.32983" y1="845.221112" x2="409.357186" y2="616.91458" stroke="black" stroke-width="3.152769"/>
<line x1="408.873999" y1="616.463999" x2="645.169474" y2="837.264774" stroke="black" stroke-width="3.152769"/>
<line x1="417.313524" y1="844.754227" x2="636.729952" y2="608.974548" stroke="black" stroke-width="3.152769"/>
<line x1="1685.530586" y1="876.084004" x2="1894.618597" y2="876.084004" stroke="black" stroke-width="3.152769"/>
<line x1="1894.618597" y1="876.084004" x2="1894.618597" y2="644.186392" stroke="black" stroke-width="3.152769"/>
<line x1="1894.618597" y1="644.186392" x2="1685.530586" y2="644.186392" stroke="black" stroke-width="3.152769"/>
<line x1="1685.530586" y1="644.186392" x2="1685.530586" y2="876.084004" stroke="black" stroke-width="3.152769"/>
<line x1="1685.530586" y1="843.770402" x2="1894.618597" y2="843.770402" stroke="black" stroke-width="3.152769"/>
<line x1="837.814903" y1="1169.516333" x2="966.542337" y2="1004.752732" stroke="black" stroke-width="3.152769"/>
<line x1="966.542337" y1="1004.752732" x2="783.804527" y2="861.982306" stroke="black" stroke-width="3.152769"/>
<line x1="783.804527" y1="861.982306" x2="655.077093" y2="1026.745909" stroke="black" stroke-width="3.152769"/>
<line x1="655.077093" y1="1026.745909" x2="837.814903" y2="1169.516333" stroke="black" stroke-width="3.152769"/>
<line x1="812.351441" y1="1149.622093" x2="941.078875" y2="984.858492" stroke="black" stroke-width="3.152769"/>
<line x1="1802.168901" y1="1354.545222" x2="1802.168901" y2="1201.729664" stroke="black" stroke-width="3.152769"/>
<line x1="1802.168901" y1="1201.729664" x2="1955.29761" y2="1201.729664" stroke="black" stroke-width="3.152769"/>
<line x1="1955.29761" y1="1201.729664" x2="1955.29761" y2="1354.545222" stroke="black" stroke-width="3.152769"/>
<line x1="1955.29761" y1="1354.545222" x2="1802.168901" y2="1354.545222" stroke="black" stroke-width="3.152769"/>
<line x1="1801.855756" y1="1354.85837" x2="1955.29761" y2="1201.729664" stroke="black" stroke-width="3.152769"/>
<line x1="1954.984462" y1="1354.545222" x2="1802.168901" y2="1202.042809" stroke="black" stroke-width="3.152769"/>
<line x1="982.685229" y1="448.961748" x2="837.440491" y2="298.55642" stroke="black" stroke-width="3.152769"/>
<line x1="837.440491" y1="298.55642" x2="670.627307" y2="459.646036" stroke="black" stroke-width="3.152769"/>
<line x1="670.627307" y1="459.646036" x2="815.872045" y2="610.051364" stroke="black" stroke-width="3.152769"/>
<line x1="815.872045" y1="610.051364" x2="982.685229" y2="448.961748" stroke="black" stroke-width="3.152769"/>
<line x1="959.440768" y1="471.408662" x2="814.19603" y2="321.003331" stroke="black" stroke-width="3.152769"/>
<line x1="1682.278832" y1="90.141143" x2="1954.942151" y2="90.141143" stroke="black" stroke-width="3.152769"/>
<line x1="1954.942151" y1="90.141143" x2="1954.942151" y2="223.120384" stroke="black" stroke-width="3.152769"/>
<line x1="1682.278832" y1="223.120384" x2="1954.942151" y2="223.120384" stroke="black" stroke-width="3.152769"/>
<line x1="1682.278832" y1="90.141143" x2="1682.278832" y2="223.120384" stroke="black" stroke-width="3.152769"/>
<line x1="1688.983667" y1="96.845981" x2="1828.109007" y2="96.845981" stroke="black" stroke-width="3.152769"/>
<line x1="1828.109007" y1="96.845981" x2="1828.109007" y2="215.856815" stroke="black" stroke-width="3.152769"/>
<line x1="1688.983667" y1="215.856815" x2="1828.109007" y2="215.856815" stroke="black" stroke-width="3.152769"/>
<line x1="1688.983667" y1="96.845981" x2="1688.983667" y2="215.856815" stroke="black" stroke-width="3.152769"/>
<line x1="1842.636152" y1="104.668288" x2="1940.415006" y2="104.668288" stroke="black" stroke-width="3.152769"/>
<line x1="1842.636152" y1="125.34153" x2="1940.415006" y2="125.34153" stroke="black" stroke-width="3.152769"/>
<line x1="1843.194887" y1="146.57351" x2="1940.973741" y2="146.57351" stroke="black" stroke-width="3.152769"/>
<line x1="1843.194887" y1="167.246755" x2="1940.973741" y2="167.246755" stroke="black" stroke-width="3.152769"/>
<line x1="1842.636152" y1="187.919997" x2="1940.415006" y2="187.919997" stroke="black" stroke-width="3.152769"/>
<line x1="1842.636152" y1="208.593242" x2="1940.415006" y2="208.593242" stroke="black" stroke-width="3.152769"/>
<line x1="1742.063616" y1="215.856815" x2="1742.063616" y2="201.888404" stroke="black" stroke-width="3.152769"/>
<line x1="1742.063616" y1="201.888404" x2="1776.705268" y2="201.888404" stroke="black" stroke-width="3.152769"/>
<line x1="1776.705268" y1="201.888404" x2="1776.705268" y2="215.298077" stroke="black" stroke-width="3.152769"/>
<circle cx="1812.46439" cy="111.931861" r="8.381044614070067" fill="none" stroke="black" stroke-width="3.152769"/>
<line x1="99.078858" y1="1445.010549" x2="298.91459" y2="1445.010549" stroke="black" stroke-width="3.152769"/>
<line x1="298.91459" y1="1445.010549" x2="298.91459" y2="1645.255782" stroke="black" stroke-width="3.152769"/>
<line x1="298.91459" y1="1645.255782" x2="99.078858" y2="1645.255782" stroke="black" stroke-width="3.152769"/>
<line x1="99.078858" y1="1645.255782" x2="99.078858" y2="1445.010549" stroke="black" stroke-width="3.152769"/>
<line x1="98.66936" y1="1444.601052" x2="298.91459" y2="1645.255782" stroke="black" stroke-width="3.152769"/>
<line x1="99.078858" y1="1644.846281" x2="298.505092" y2="1445.010549" stroke="black" stroke-width="3.152769"/>
<line x1="503.17147" y1="1645.448363" x2="503.17147" y2="1475.194252" stroke="black" stroke-width="3.152769"/>
<line x1="503.17147" y1="1475.194252" x2="314.344182" y2="1475.194252" stroke="black" stroke-width="3.152769"/>
<line x1="314.344182" y1="1475.194252" x2="314.344182" y2="1645.448363" stroke="black" stroke-width="3.152769"/>
<line x1="314.344182" y1="1645.448363" x2="503.17147" y2="1645.448363" stroke="black" stroke-width="3.152769"/>
<line x1="476.859471" y1="1645.448363" x2="476.859471" y2="1475.194252" stroke="black" stroke-width="3.152769"/>
</g>
</svg>
