<?xml version="1.0"?>
<svg xmlns:xlink="http://www.w3.org/1999/xlink" width="2056.15395" height="1836.830862">
<image x="0" y="0" width="2056.15395" height="1836.830862" xlink:href="groundempty-02.png"/>
<g style="stroke-linecap:round">
<line x1="903.100627" y1="78.978951" x2="1107.335225" y2="78.978951" stroke="black" stroke-width="3.152769"/>
<line x1="1107.335225" y1="78.978951" x2="1107.335225" y2="47.494509" stroke="black" stroke-width="3.152769"/>
<line x1="1107.335225" y1="47.494509" x2="903.100627" y2="47.494509" stroke="black" stroke-width="3.152769"/>
<line x1="903.100627" y1="47.494509" x2="903.100627" y2="78.978951" stroke="black" stroke-width="3.152769"/>
<line x1="922.157001" y1="47.90878" x2="922.157001" y2="78.564683" stroke="black" stroke-width="3.152769"/>
<line x1="1087.864586" y1="47.90878" x2="1087.864586" y2="79.807489" stroke="black" stroke-width="3.152769"/>
<line x1="921.74273" y1="62.408193" x2="1087.450315" y2="62.408193" stroke="black" stroke-width="3.152769"/>
<line x1="1518.832187" y1="1658.094444" x2="1314.59759" y2="1658.094444" stroke="black" stroke-width="3.152769"/>
<line x1="1314.59759" y1="1658.094444" x2="1314.59759" y2="1689.578885" stroke="black" stroke-width="3.152769"/>
<line x1="1314.59759" y1="1689.578885" x2="1518.832187" y2="1689.578885" stroke="black" stroke-width="3.152769"/>
<line x1="1518.832187" y1="1689.578885" x2="1518.832187" y2="1658.094444" stroke="black" stroke-width="3.152769"/>
<line x1="1499.775814" y1="1689.164614" x2="1499.775814" y2="1658.508711" stroke="black" stroke-width="3.152769"/>
<line x1="1334.068228" y1="1689.164614" x2="1334.068228" y2="1657.265905" stroke="black" stroke-width="3.152769"/>
<line x1="1500.190084" y1="1674.665201" x2="1334.482499" y2="1674.665201" stroke="black" stroke-width="3.152769"/>
<line x1="756.247358" y1="1494.233918" x2="768.38411" y2="1494.233918" stroke="black" stroke-width="3.152769"/>
<line x1="768.38411" y1="1494.233918" x2="768.38411" y2="1688.421944" stroke="black" stroke-width="3.152769"/>
<line x1="756.247358" y1="1688.421944" x2="768.38411" y2="1688.421944" stroke="black" stroke-width="3.152769"/>
<line x1="756.247358" y1="1494.233918" x2="756.247358" y2="1688.421944" stroke="black" stroke-width="3.152769"/>
<line x1="1131.677541" y1="1494.233918" x2="1144.623409" y2="1494.233918" stroke="black" stroke-width="3.152769"/>
<line x1="1144.623409" y1="1494.233918" x2="1144.623409" y2="1688.421944" stroke="black" stroke-width="3.152769"/>
<line x1="1131.677541" y1="1688.421944" x2="1144.623409" y2="1688.421944" stroke="black" stroke-width="3.152769"/>
<line x1="1131.677541" y1="1494.233918" x2="1131.677541" y2="1688.421944" stroke="black" stroke-width="3.152769"/>
<path d="m 756.247358,1494.233918 a 194.18802550000004,194.18802550000004 0 0 1 194.18802500000004,194.18802600000004" fill="none" stroke="black" stroke-width="3.152769"/>
<path d="m 950.435383,1688.421944 a 194.18802600000004,194.18802600000004 0 0 1 194.18802600000004,-194.18802600000004" fill="none" stroke="black" stroke-width="3.152769"/>
<line x1="1968.624457" y1="319.015621" x2="1968.624457" y2="523.250219" stroke="black" stroke-width="3.152769"/>
<line x1="1968.624457" y1="523.250219" x2="2000.108899" y2="523.250219" stroke="black" stroke-width="3.152769"/>
<line x1="2000.108899" y1="523.250219" x2="2000.108899" y2="319.015621" stroke="black" stroke-width="3.152769"/>
<line x1="2000.108899" y1="319.015621" x2="1968.624457" y2="319.015621" stroke="black" stroke-width="3.152769"/>
<line x1="1999.694628" y1="338.071995" x2="1969.038725" y2="338.071995" stroke="black" stroke-width="3.152769"/>
<line x1="1999.694628" y1="503.77958" x2="1967.795919" y2="503.77958" stroke="black" stroke-width="3.152769"/>
<line x1="1985.195215" y1="337.657724" x2="1985.195215" y2="503.365309" stroke="black" stroke-width="3.152769"/>
<line x1="1259.768079" y1="1163.185118" x2="1259.768079" y2="1147.448939" stroke="black" stroke-width="3.152769"/>
<line x1="1259.768079" y1="1147.448939" x2="1229.063337" y2="1147.448939" stroke="black" stroke-width="3.152769"/>
<line x1="1229.063337" y1="1147.448939" x2="1229.063337" y2="1163.185118" stroke="black" stroke-width="3.152769"/>
<line x1="1229.063337" y1="1163.185118" x2="1259.768079" y2="1163.185118" stroke="black" stroke-width="3.152769"/>
<line x1="1229.063337" y1="993.54142" x2="1075.92344" y2="993.54142" stroke="black" stroke-width="3.152769"/>
<line x1="1260.535697" y1="993.157611" x2="1260.535697" y2="977.421432" stroke="black" stroke-width="3.152769"/>
<line x1="1260.535697" y1="977.421432" x2="1229.830956" y2="977.421432" stroke="black" stroke-width="3.152769"/>
<line x1="1229.830956" y1="977.421432" x2="1229.830956" y2="993.157611" stroke="black" stroke-width="3.152769"/>
<line x1="1229.830956" y1="993.157611" x2="1260.535697" y2="993.157611" stroke="black" stroke-width="3.152769"/>
<path d="m 1230.214765,1147.448939 a 153.90751750000004,153.90751750000004 0 0 1 -153.907516,-153.9075190000001" fill="none" stroke="black" stroke-width="3.152769"/>
<line x1="669.120947" y1="1207.640357" x2="653.329295" y2="1207.640357" stroke="black" stroke-width="3.152769"/>
<line x1="653.329295" y1="1207.640357" x2="653.329295" y2="1238.453338" stroke="black" stroke-width="3.152769"/>
<line x1="653.329295" y1="1238.453338" x2="669.120947" y2="1238.453338" stroke="black" stroke-width="3.152769"/>
<line x1="669.120947" y1="1238.453338" x2="669.120947" y2="1207.640357" stroke="black" stroke-width="3.152769"/>
<line x1="498.879229" y1="1238.453338" x2="498.879229" y2="1392.133078" stroke="black" stroke-width="3.152769"/>
<line x1="498.494067" y1="1206.870034" x2="482.702415" y2="1206.870034" stroke="black" stroke-width="3.152769"/>
<line x1="482.702415" y1="1206.870034" x2="482.702415" y2="1237.683015" stroke="black" stroke-width="3.152769"/>
<line x1="482.702415" y1="1237.683015" x2="498.494067" y2="1237.683015" stroke="black" stroke-width="3.152769"/>
<line x1="498.494067" y1="1237.683015" x2="498.494067" y2="1206.870034" stroke="black" stroke-width="3.152769"/>
<path d="m 653.329295,1237.297853 a 154.4500645,154.4500645 0 0 1 -154.450066,154.450063" fill="none" stroke="black" stroke-width="3.152769"/>
<line x1="1907.132423" y1="1645.512993" x2="1907.132423" y2="1461.768984" stroke="black" stroke-width="3.152769"/>
<line x1="1907.132423" y1="1461.768984" x2="1956.236425" y2="1461.768984" stroke="black" stroke-width="3.152769"/>
<line x1="1956.236425" y1="1645.512993" x2="1956.236425" y2="1461.768984" stroke="black" stroke-width="3.152769"/>
<line x1="1907.132423" y1="1645.512993" x2="1956.236425" y2="1645.512993" stroke="black" stroke-width="3.152769"/>
<line x1="1879.412421" y1="1603.932991" x2="1907.132423" y2="1603.932991" stroke="black" stroke-width="3.152769"/>
<line x1="1907.132423" y1="1504.932986" x2="1877.828421" y2="1504.932986" stroke="black" stroke-width="3.152769"/>
<circle cx="1834.268419" cy="1555.224988" r="66.52800336000001" fill="none" stroke="black" stroke-width="3.152769"/>
<circle cx="1834.268419" cy="1555.224988" r="57.024002880000005" fill="none" stroke="black" stroke-width="3.152769"/>
<line x1="1284.845408" y1="1398.845698" x2="1260.293406" y2="1417.457699" stroke="black" stroke-width="3.152769"/>
<line x1="1260.293406" y1="1417.457699" x2="1260.293406" y2="1564.769707" stroke="black" stroke-width="3.152769"/>
<line x1="1260.293406" y1="1564.769707" x2="1288.409408" y2="1583.777708" stroke="black" stroke-width="3.152769"/>
<line x1="1287.617408" y1="1420.625699" x2="1287.617408" y2="1563.581707" stroke="black" stroke-width="3.152769"/>
<circle cx="1309.397409" cy="1489.925703" r="13.068000660000003" fill="none" stroke="black" stroke-width="3.152769"/>
<path d="m 1286.950059,1422.178952 a 74.84400348070997,74.84400348070997 0 1 1 0.4020499999999174,139.60900900000001" fill="none" stroke="black" stroke-width="3.152769"/>
<path d="m 1284.188044,1398.892 a 95.43600379741252,95.43600379741252 0 1 1 3.0749590000000353,184.46700499999997" fill="none" stroke="black" stroke-width="3.152769"/>
<line x1="1511.86524" y1="1133.505251" x2="1903.11326" y2="1133.505251" stroke="black" stroke-width="3.152769"/>
<line x1="1903.11326" y1="1133.505251" x2="1903.11326" y2="959.265243" stroke="black" stroke-width="3.152769"/>
<line x1="1903.11326" y1="959.265243" x2="1511.86524" y2="959.265243" stroke="black" stroke-width="3.152769"/>
<line x1="1511.86524" y1="959.265243" x2="1511.86524" y2="1133.505251" stroke="black" stroke-width="3.152769"/>
<line x1="1827.873256" y1="986.193244" x2="1543.545242" y2="986.193244" stroke="black" stroke-width="3.152769"/>
<line x1="1543.545242" y1="986.193244" x2="1543.545242" y2="1104.20125" stroke="black" stroke-width="3.152769"/>
<line x1="1543.545242" y1="1104.20125" x2="1833.417257" y2="1104.20125" stroke="black" stroke-width="3.152769"/>
<path d="m 1827.062684,985.937821 a 63.36000284802704,63.36000284802704 0 0 1 4.293813,119.37433699999997" fill="none" stroke="black" stroke-width="3.152769"/>
<line x1="1499.258031" y1="932.484041" x2="1499.258031" y2="539.652022" stroke="black" stroke-width="3.152769"/>
<line x1="1499.258031" y1="539.652022" x2="1314.722022" y2="539.652022" stroke="black" stroke-width="3.152769"/>
<line x1="1314.722022" y1="539.652022" x2="1314.722022" y2="932.484041" stroke="black" stroke-width="3.152769"/>
<line x1="1314.722022" y1="932.484041" x2="1499.258031" y2="932.484041" stroke="black" stroke-width="3.152769"/>
<line x1="1314.722022" y1="773.292033" x2="1233.938018" y2="773.292033" stroke="black" stroke-width="3.152769"/>
<line x1="1233.938018" y1="773.292033" x2="1233.938018" y2="851.700037" stroke="black" stroke-width="3.152769"/>
<line x1="1233.938018" y1="851.700037" x2="1314.722022" y2="851.700037" stroke="black" stroke-width="3.152769"/>
<line x1="1251.362019" y1="850.908037" x2="1251.362019" y2="773.292033" stroke="black" stroke-width="3.152769"/>
<line x1="1580.834035" y1="851.700037" x2="1580.834035" y2="773.292033" stroke="black" stroke-width="3.152769"/>
<line x1="1580.834035" y1="773.292033" x2="1499.258031" y2="773.292033" stroke="black" stroke-width="3.152769"/>
<line x1="1499.258031" y1="851.700037" x2="1580.834035" y2="851.700037" stroke="black" stroke-width="3.152769"/>
<line x1="1563.410035" y1="850.908037" x2="1563.410035" y2="773.292033" stroke="black" stroke-width="3.152769"/>
<line x1="1314.722022" y1="622.020026" x2="1233.938018" y2="622.020026" stroke="black" stroke-width="3.152769"/>
<line x1="1233.938018" y1="622.020026" x2="1233.938018" y2="700.42803" stroke="black" stroke-width="3.152769"/>
<line x1="1233.938018" y1="700.42803" x2="1314.722022" y2="700.42803" stroke="black" stroke-width="3.152769"/>
<line x1="1251.362019" y1="700.42803" x2="1251.362019" y2="622.020026" stroke="black" stroke-width="3.152769"/>
<line x1="1580.834035" y1="700.42803" x2="1580.834035" y2="622.020026" stroke="black" stroke-width="3.152769"/>
<line x1="1580.834035" y1="622.020026" x2="1499.258031" y2="622.020026" stroke="black" stroke-width="3.152769"/>
<line x1="1499.258031" y1="700.42803" x2="1580.834035" y2="700.42803" stroke="black" stroke-width="3.152769"/>
<line x1="1563.410035" y1="700.42803" x2="1563.410035" y2="622.020026" stroke="black" stroke-width="3.152769"/>
<line x1="1231.897555" y1="90.941932" x2="1408.223201" y2="90.941932" stroke="black" stroke-width="3.152769"/>
<line x1="1408.223201" y1="90.941932" x2="1408.223201" y2="267.628901" stroke="black" stroke-width="3.152769"/>
<line x1="1408.223201" y1="267.628901" x2="1231.897555" y2="267.628901" stroke="black" stroke-width="3.152769"/>
<line x1="1231.897555" y1="267.628901" x2="1231.897555" y2="90.941932" stroke="black" stroke-width="3.152769"/>
<line x1="1231.536232" y1="90.580609" x2="1408.223201" y2="267.628901" stroke="black" stroke-width="3.152769"/>
<line x1="1231.897555" y1="267.267578" x2="1407.861879" y2="90.941932" stroke="black" stroke-width="3.152769"/>
<line x1="99.627833" y1="421.28499" x2="308.993043" y2="421.28499" stroke="black" stroke-width="3.152769"/>
<line x1="308.993043" y1="421.28499" x2="308.993043" y2="90.070576" stroke="black" stroke-width="3.152769"/>
<line x1="308.993043" y1="90.070576" x2="99.627833" y2="90.070576" stroke="black" stroke-width="3.152769"/>
<line x1="99.627833" y1="90.070576" x2="99.627833" y2="421.28499" stroke="black" stroke-width="3.152769"/>
<line x1="98.954633" y1="149.312176" x2="309.666243" y2="149.312176" stroke="black" stroke-width="3.152769"/>
<line x1="309.666243" y1="149.312176" x2="100.301033" y2="199.128979" stroke="black" stroke-width="3.152769"/>
<line x1="100.301033" y1="199.128979" x2="131.941437" y2="245.579781" stroke="black" stroke-width="3.152769"/>
<line x1="131.941437" y1="245.579781" x2="309.666243" y2="148.638979" stroke="black" stroke-width="3.152769"/>
<line x1="290.278582" y1="611.979729" x2="100.198572" y2="611.979729" stroke="black" stroke-width="3.152769"/>
<line x1="100.198572" y1="611.979729" x2="100.198572" y2="1075.774952" stroke="black" stroke-width="3.152769"/>
<line x1="100.198572" y1="1075.774952" x2="290.278582" y2="1075.774952" stroke="black" stroke-width="3.152769"/>
<line x1="290.278582" y1="1075.774952" x2="290.278582" y2="1052.014951" stroke="black" stroke-width="3.152769"/>
<line x1="290.278582" y1="1052.014951" x2="123.008173" y2="1052.014951" stroke="black" stroke-width="3.152769"/>
<line x1="123.008173" y1="1052.014951" x2="123.008173" y2="636.69013" stroke="black" stroke-width="3.152769"/>
<line x1="123.008173" y1="636.69013" x2="290.278582" y2="636.69013" stroke="black" stroke-width="3.152769"/>
<line x1="290.278582" y1="636.69013" x2="290.278582" y2="611.979729" stroke="black" stroke-width="3.152769"/>
<line x1="284.576181" y1="636.69013" x2="284.576181" y2="1052.014951" stroke="black" stroke-width="3.152769"/>
<line x1="285.526582" y1="843.87734" x2="123.958573" y2="843.87734" stroke="black" stroke-width="3.152769"/>
<line x1="644.694" y1="617.359066" x2="636.752351" y2="844.778219" stroke="black" stroke-width="3.152769"/>
<line x1="636.752351" y1="844.778219" x2="408.867169" y2="836.820294" stroke="black" stroke-width="3.152769"/>
<line x1="408.867169" y1="836.820294" x2="416.808825" y2="609.401138" stroke="black" stroke-width="3.152769"/>
<line x1="416.808825" y1="609.401138" x2="644.694" y2="617.359066" stroke="black" stroke-width="3.152769"/>
<line x1="645.176298" y1="616.909317" x2="408.867169" y2="836.820294" stroke="black" stroke-width="3.152769"/>
<line x1="417.274844" y1="609.417413" x2="636.768623" y2="844.3122" stroke="black" stroke-width="3.152769"/>
<line x1="1685.530586" y1="787.729363" x2="1894.618597" y2="787.729363" stroke="black" stroke-width="3.152769"/>
<line x1="1894.618597" y1="787.729363" x2="1894.618597" y2="555.831751" stroke="black" stroke-width="3.152769"/>
<line x1="1894.618597" y1="555.831751" x2="1685.530586" y2="555.831751" stroke="black" stroke-width="3.152769"/>
<line x1="1685.530586" y1="555.831751" x2="1685.530586" y2="787.729363" stroke="black" stroke-width="3.152769"/>
<line x1="1685.530586" y1="755.415761" x2="1894.618597" y2="755.415761" stroke="black" stroke-width="3.152769"/>
<line x1="747.212605" y1="1158.329061" x2="946.067122" y2="1093.717311" stroke="black" stroke-width="3.152769"/>
<line x1="946.067122" y1="1093.717311" x2="874.406819" y2="873.169578" stroke="black" stroke-width="3.152769"/>
<line x1="874.406819" y1="873.169578" x2="675.552305" y2="937.781325" stroke="black" stroke-width="3.152769"/>
<line x1="675.552305" y1="937.781325" x2="747.212605" y2="1158.329061" stroke="black" stroke-width="3.152769"/>
<line x1="737.227154" y1="1127.597001" x2="936.081668" y2="1062.985251" stroke="black" stroke-width="3.152769"/>
<line x1="981.242449" y1="476.137054" x2="864.32192" y2="302.795235" stroke="black" stroke-width="3.152769"/>
<line x1="864.32192" y1="302.795235" x2="672.070088" y2="432.470732" stroke="black" stroke-width="3.152769"/>
<line x1="672.070088" y1="432.470732" x2="788.990617" y2="605.812549" stroke="black" stroke-width="3.152769"/>
<line x1="788.990617" y1="605.812549" x2="981.242449" y2="476.137054" stroke="black" stroke-width="3.152769"/>
<line x1="954.453257" y1="494.20659" x2="837.532728" y2="320.864773" stroke="black" stroke-width="3.152769"/>
<line x1="1802.185448" y1="1356.779101" x2="1802.185448" y2="1203.963543" stroke="black" stroke-width="3.152769"/>
<line x1="1802.185448" y1="1203.963543" x2="1955.314156" y2="1203.963543" stroke="black" stroke-width="3.152769"/>
<line x1="1955.314156" y1="1203.963543" x2="1955.314156" y2="1356.779101" stroke="black" stroke-width="3.152769"/>
<line x1="1955.314156" y1="1356.779101" x2="1802.185448" y2="1356.779101" stroke="black" stroke-width="3.152769"/>
<line x1="1801.872303" y1="1357.092248" x2="1955.314156" y2="1203.963543" stroke="black" stroke-width="3.152769"/>
<line x1="1955.001009" y1="1356.779101" x2="1802.185448" y2="1204.276687" stroke="black" stroke-width="3.152769"/>
<line x1="1682.278832" y1="90.141143" x2="1954.942151" y2="90.141143" stroke="black" stroke-width="3.152769"/>
<line x1="1954.942151" y1="90.141143" x2="1954.942151" y2="223.120384" stroke="black" stroke-width="3.152769"/>
<line x1="1682.278832" y1="223.120384" x2="1954.942151" y2="223.120384" stroke="black" stroke-width="3.152769"/>
<line x1="1682.278832" y1="90.141143" x2="1682.278832" y2="223.120384" stroke="black" stroke-width="3.152769"/>
<line x1="1688.983667" y1="96.845981" x2="1828.109007" y2="96.845981" stroke="black" stroke-width="3.152769"/>
<line x1="1828.109007" y1="96.845981" x2="1828.109007" y2="215.856815" stroke="black" stroke-width="3.152769"/>
<line x1="1688.983667" y1="215.856815" x2="1828.109007" y2="215.856815" stroke="black" stroke-width="3.152769"/>
<line x1="1688.983667" y1="96.845981" x2="1688.983667" y2="215.856815" stroke="black" stroke-width="3.152769"/>
<line x1="1842.636152" y1="104.668288" x2="1940.415006" y2="104.668288" stroke="black" stroke-width="3.152769"/>
<line x1="1842.636152" y1="125.34153" x2="1940.415006" y2="125.34153" stroke="black" stroke-width="3.152769"/>
<line x1="1843.194887" y1="146.57351" x2="1940.973741" y2="146.57351" stroke="black" stroke-width="3.152769"/>
<line x1="1843.194887" y1="167.246755" x2="1940.973741" y2="167.246755" stroke="black" stroke-width="3.152769"/>
<line x1="1842.636152" y1="187.919997" x2="1940.415006" y2="187.919997" stroke="black" stroke-width="3.152769"/>
<line x1="1842.636152" y1="208.593242" x2="1940.415006" y2="208.593242" stroke="black" stroke-width="3.152769"/>
<line x1="1742.063616" y1="215.856815" x2="1742.063616" y2="201.888404" stroke="black" stroke-width="3.152769"/>
<line x1="1742.063616" y1="201.888404" x2="1776.705268" y2="201.888404" stroke="black" stroke-width="3.152769"/>
<line x1="1776.705268" y1="201.888404" x2="1776.705268" y2="215.298077" stroke="black" stroke-width="3.152769"/>
<circle cx="1812.46439" cy="111.931861" r="8.381044614070067" fill="none" stroke="black" stroke-width="3.152769"/>
<line x1="99.078858" y1="1445.010549" x2="298.91459" y2="1445.010549" stroke="black" stroke-width="3.152769"/>
<line x1="298.91459" y1="1445.010549" x2="298.91459" y2="1645.255782" stroke="black" stroke-width="3.152769"/>
<line x1="298.91459" y1="1645.255782" x2="99.078858" y2="1645.255782" stroke="black" stroke-width="3.152769"/>
<line x1="99.078858" y1="1645.255782" x2="99.078858" y2="1445.010549" stroke="black" stroke-width="3.152769"/>
<line x1="98.66936" y1="1444.601052" x2="298.91459" y2="1645.255782" stroke="black" stroke-width="3.152769"/>
<line x1="99.078858" y1="1644.846281" x2="298.505092" y2="1445.010549" stroke="black" stroke-width="3.152769"/>
<line x1="503.17147" y1="1645.448363" x2="503.17147" y2="1475.194252" stroke="black" stroke-width="3.152769"/>
<line x1="503.17147" y1="1475.194252" x2="314.344182" y2="1475.194252" stroke="black" stroke-width="3.152769"/>
<line x1="314.344182" y1="1475.194252" x2="314.344182" y2="1645.448363" stroke="black" stroke-width="3.152769"/>
<line x1="314.344182" y1="1645.448363" x2="503.17147" y2="1645.448363" stroke="black" stroke-width="3.152769"/>
<line x1="476.859471" y1="1645.448363" x2="476.859471" y2="1475.194252" stroke="black" stroke-width="3.152769"/>
<line x1="1408.397825" y1="90.501744" x2="1681.061144" y2="90.501744" stroke="black" stroke-width="3.152769"/>
<line x1="1681.061144" y1="90.501744" x2="1681.061144" y2="223.480985" stroke="black" stroke-width="3.152769"/>
<line x1="1408.397825" y1="223.480985" x2="1681.061144" y2="223.480985" stroke="black" stroke-width="3.152769"/>
<line x1="1408.397825" y1="90.501744" x2="1408.397825" y2="223.480985" stroke="black" stroke-width="3.152769"/>
<line x1="1415.10266" y1="97.206582" x2="1554.228" y2="97.206582" stroke="black" stroke-width="3.152769"/>
<line x1="1554.228" y1="97.206582" x2="1554.228" y2="216.217415" stroke="black" stroke-width="3.152769"/>
<line x1="1415.10266" y1="216.217415" x2="1554.228" y2="216.217415" stroke="black" stroke-width="3.152769"/>
<line x1="1415.10266" y1="97.206582" x2="1415.10266" y2="216.217415" stroke="black" stroke-width="3.152769"/>
<line x1="1568.755145" y1="105.028889" x2="1666.533999" y2="105.028889" stroke="black" stroke-width="3.152769"/>
<line x1="1568.755145" y1="125.702131" x2="1666.533999" y2="125.702131" stroke="black" stroke-width="3.152769"/>
<line x1="1569.31388" y1="146.934111" x2="1667.092734" y2="146.934111" stroke="black" stroke-width="3.152769"/>
<line x1="1569.31388" y1="167.607356" x2="1667.092734" y2="167.607356" stroke="black" stroke-width="3.152769"/>
<line x1="1568.755145" y1="188.280598" x2="1666.533999" y2="188.280598" stroke="black" stroke-width="3.152769"/>
<line x1="1568.755145" y1="208.953843" x2="1666.533999" y2="208.953843" stroke="black" stroke-width="3.152769"/>
<line x1="1468.182609" y1="216.217415" x2="1468.182609" y2="202.249005" stroke="black" stroke-width="3.152769"/>
<line x1="1468.182609" y1="202.249005" x2="1502.824261" y2="202.249005" stroke="black" stroke-width="3.152769"/>
<line x1="1502.824261" y1="202.249005" x2="1502.824261" y2="215.658677" stroke="black" stroke-width="3.152769"/>
<circle cx="1538.583383" cy="112.292462" r="8.381044614070067" fill="none" stroke="black" stroke-width="3.152769"/>
</g>
</svg>
